<svg width="26" height="41" viewBox="0 0 26 41" fill="none" xmlns="http://www.w3.org/2000/svg">
<path fill-rule="evenodd" clip-rule="evenodd" d="M1.5 0C0.67157 0 0 0.67157 0 1.5V39.5C0 40.3284 0.67157 41 1.5 41C2.32843 41 3 40.3284 3 39.5V17L5.44791 19.4479C5.77237 19.7724 6.27603 19.8344 6.66951 19.5983L10.4748 17.3151C10.7971 17.1217 11.2006 17.1254 11.5193 17.3246L18.6229 21.7643C18.863 21.9144 19.1554 21.9556 19.4276 21.8778L25.2747 20.2072C25.704 20.0846 26 19.6922 26 19.2457V8.32574C26 7.66138 25.3641 7.1817 24.7253 7.3642L19.4775 8.86359C19.1767 8.94952 18.853 8.88977 18.6027 8.70209L11.4944 3.37085C11.1914 3.14355 10.786 3.10699 10.4472 3.27637L6.60959 5.19519C6.24184 5.37909 5.79903 5.31909 5.49341 5.04407L3 2.79999V1.5C3 0.67157 2.32843 0 1.5 0Z" fill="#E84848"/>
</svg>
